<svg xmlns="http://www.w3.org/2000/svg" width="860" height="300" viewBox="0 0 860 300">
  <style>
    .box{fill:#fff;stroke:#444;stroke-width:2;rx:8;ry:8}
    .title{font-family:Arial,sans-serif;font-size:16px;font-weight:bold;fill:#222}
    .text{font-family:Arial,sans-serif;font-size:13px;fill:#333}
    .arrow{stroke:#666;stroke-width:2;marker-end:url(#arrow)}
    .note{font-family:Arial,sans-serif;font-size:12px;fill:#0a6;}
  </style>
  <defs>
    <marker id="arrow" viewBox="0 0 10 10" refX="9" refY="5" markerWidth="8" markerHeight="8" orient="auto-start-reverse">
      <path d="M 0 0 L 10 5 L 0 10 z" fill="#666" />
    </marker>
  </defs>
  <!-- User -->
  <rect x="20" y="110" width="130" height="80" class="box"/>
  <text x="85" y="140" text-anchor="middle" class="title">Usuario</text>
  <text x="85" y="162" text-anchor="middle" class="text">Orden</text>

  <!-- Coordinator -->
  <rect x="170" y="80" width="200" height="140" class="box"/>
  <text x="270" y="110" text-anchor="middle" class="title">Agente coordinador</text>
  <text x="270" y="132" text-anchor="middle" class="text">Orquesta herramientas</text>
  <text x="270" y="154" text-anchor="middle" class="note">Msg 1: Inicio</text>
  
  <!-- Tools -->
  <rect x="390" y="40" width="180" height="90" class="box"/>
  <text x="480" y="70" text-anchor="middle" class="title">google_search</text>
  <text x="480" y="92" text-anchor="middle" class="text">Noticias IA</text>

  <rect x="390" y="160" width="180" height="90" class="box"/>
  <text x="480" y="190" text-anchor="middle" class="title">get_financial_context</text>
  <text x="480" y="212" text-anchor="middle" class="text">Ticker → precio %</text>

  <!-- Output -->
  <rect x="590" y="110" width="240" height="80" class="box"/>
  <text x="710" y="140" text-anchor="middle" class="title">ai_research_report.md</text>
  <text x="710" y="162" text-anchor="middle" class="note">Msg 2: Listo</text>

  <!-- Arrows -->
  <line x1="150" y1="150" x2="170" y2="150" class="arrow"/>
  <line x1="370" y1="100" x2="390" y2="85" class="arrow"/>
  <line x1="370" y1="160" x2="390" y2="175" class="arrow"/>
  <line x1="570" y1="150" x2="590" y2="150" class="arrow"/>
</svg>

